
<svg width="296" height="192" viewBox="0 0 296 192" fill="none" xmlns="http://www.w3.org/2000/svg">
<g clip-path="url(#clip0_2998_55247)">
<path d="M163.056 75.9712C190.682 65.6115 171.344 35.2229 187.574 28.3164" stroke="#F64A70" stroke-width="3.12992" stroke-linecap="round" stroke-linejoin="round"/>
<path d="M128.138 98.953L175.051 126.434L178.01 121.382" stroke="#F64A70" stroke-width="3.12992" stroke-linecap="round" stroke-linejoin="round"/>
<path d="M90.2021 151.476L119.791 136.308L113.932 172.613C113.772 173.944 113.189 175.187 112.269 176.161C111.349 177.135 110.14 177.788 108.821 178.023C107.502 178.258 106.142 178.064 104.942 177.469C103.742 176.873 102.765 175.908 102.154 174.715L90.2021 151.476Z" fill="#FF7A00"/>
<path d="M83.9292 139.255L113.518 124.087L80.6206 107.649C79.4471 107.003 78.097 106.75 76.7691 106.929C75.4411 107.107 74.2056 107.707 73.2445 108.641C72.2834 109.574 71.6474 110.792 71.4303 112.114C71.2131 113.436 71.4264 114.793 72.0384 115.985L83.9292 139.255Z" fill="#FF7A00"/>
<path d="M164.93 111.572C165.541 110.283 165.86 108.915 165.864 107.559C165.868 106.203 165.557 104.89 164.952 103.712C164.348 102.533 163.464 101.515 162.361 100.726C161.258 99.9376 159.96 99.3973 158.558 99.1418C148.907 97.4191 128.806 99.2117 112.881 107.376C86.6799 120.808 82.5308 136.508 82.5308 136.508L90.2016 151.471C90.2016 151.471 105.371 157.267 131.572 143.835C147.497 135.671 160.707 120.416 164.93 111.572Z" fill="#FFC200"/>
<path d="M122.156 124.991C124.621 129.8 130.518 131.7 135.327 129.235C140.135 126.769 142.035 120.873 139.57 116.064C137.105 111.255 131.208 109.355 126.399 111.821C121.591 114.286 119.691 120.182 122.156 124.991Z" fill="#FF7A00"/>
<path d="M78.9228 137.623L86.8968 153.177C87.1261 153.6 87.2393 154.076 87.2247 154.556C87.2102 155.036 87.0684 155.505 86.8139 155.912C86.5594 156.32 86.2013 156.653 85.776 156.877C85.3508 157.101 84.8738 157.209 84.3936 157.188L65.8639 156.917C65.3588 156.923 64.862 156.788 64.4295 156.527C63.9969 156.266 63.6457 155.889 63.4153 155.44C63.1848 154.99 63.0842 154.485 63.1248 153.982C63.1655 153.478 63.3456 152.996 63.6452 152.589L74.2215 137.346C74.4836 136.947 74.8463 136.624 75.2731 136.41C75.6998 136.195 76.1755 136.097 76.6522 136.125C77.1289 136.153 77.5897 136.307 77.9883 136.57C78.387 136.832 78.7093 137.196 78.9228 137.623Z" fill="#FF7A00"/>
<path d="M118.183 103.562C121.111 115.564 124.916 133.714 100.62 140.154L100.034 144.545" stroke="#F64A70" stroke-width="3.12992" stroke-linecap="round" stroke-linejoin="round"/>
<path d="M71.3445 109.811C62.9123 114.993 66.7111 139.511 97.0994 129.497" stroke="#F64A70" stroke-width="3.12992" stroke-linecap="round" stroke-linejoin="round"/>
<path d="M83.1304 114.571C83.0015 114.616 82.8714 114.66 82.7403 114.702C75.5964 116.99 67.9465 113.04 65.6539 105.881C63.4027 98.8508 67.1536 91.3398 74.0531 88.9046C73.1125 87.7234 72.3662 86.3544 71.8782 84.8305C69.7245 78.1049 73.4189 70.9105 80.1298 68.7615C82.2864 68.0709 84.4922 67.9854 86.5642 68.4106C85.1918 62.0554 88.8345 55.5793 95.1417 53.5596C99.4108 52.1925 103.872 53.1965 107.108 55.8395C108.207 51.8084 111.255 48.3996 115.524 47.0325C121.832 45.0128 128.559 48.1684 131.133 54.1386C132.573 52.5889 134.418 51.3772 136.574 50.6866C143.285 48.5376 150.472 52.2477 152.625 58.9734C153.113 60.4972 153.301 62.0451 153.222 63.553C160.252 61.5275 167.668 65.4625 169.92 72.4925C172.212 79.652 168.28 87.3105 161.136 89.5981L83.1323 114.577L83.1304 114.571Z" fill="#FF8EA7"/>
<path d="M119.489 85.2986C119.307 84.7597 119.597 84.1756 120.136 83.994L126.828 81.7399C127.367 81.5584 127.951 81.8481 128.132 82.3871C128.755 84.2349 127.761 86.2375 125.913 86.86L123.962 87.5174C122.114 88.1399 120.111 87.1465 119.489 85.2986Z" fill="#111111"/>
<path fill-rule="evenodd" clip-rule="evenodd" d="M128.154 84.5609C127.828 85.6043 127.025 86.4824 125.91 86.858L123.958 87.5154C122.841 87.8915 121.669 87.6777 120.778 87.0421C121.382 86.3219 122.643 85.5523 124.202 85.0273C125.764 84.501 127.238 84.3508 128.154 84.5609Z" fill="#F64A70"/>
<circle cx="99.2751" cy="97.1843" r="6.14734" transform="rotate(-17.7563 99.2751 97.1843)" fill="#F64A70"/>
<circle cx="151.687" cy="80.4026" r="6.14734" transform="rotate(-17.7563 151.687 80.4026)" fill="#F64A70"/>
<circle cx="108.933" cy="87.0217" r="8.48918" transform="rotate(-17.7563 108.933 87.0217)" fill="white"/>
<circle cx="108.933" cy="87.0212" r="6.79134" transform="rotate(-17.7563 108.933 87.0212)" fill="#111111"/>
<circle cx="104.837" cy="85.3622" r="2.82973" transform="rotate(-17.7563 104.837 85.3622)" fill="white"/>
<circle cx="113.915" cy="89.586" r="1.69784" transform="rotate(-17.7563 113.915 89.586)" fill="white"/>
<circle cx="137.926" cy="77.7385" r="8.48918" transform="rotate(-17.7563 137.926 77.7385)" fill="white"/>
<circle cx="137.925" cy="77.738" r="6.79134" transform="rotate(-17.7563 137.925 77.738)" fill="#111111"/>
<circle cx="133.829" cy="76.0785" r="2.82973" transform="rotate(-17.7563 133.829 76.0785)" fill="white"/>
<circle cx="142.907" cy="80.3023" r="1.69784" transform="rotate(-17.7563 142.907 80.3023)" fill="white"/>
<rect x="96.5391" y="76.1567" width="8.78191" height="2.9273" rx="1.46365" transform="rotate(-36.7092 96.5391 76.1567)" fill="#F64A70"/>
<rect width="8.78191" height="2.9273" rx="1.46365" transform="matrix(-0.999782 -0.0208836 -0.0208836 0.999782 141.596 61.731)" fill="#F64A70"/>
<path d="M211.768 3.61629C212.537 2.10947 214.69 2.10947 215.459 3.6163L218.207 9.00052C218.508 9.59045 219.073 10.0009 219.727 10.1049L225.697 11.0544C227.368 11.3201 228.033 13.3678 226.838 14.5648L222.566 18.8418C222.098 19.3105 221.882 19.9746 221.985 20.6288L222.927 26.5998C223.191 28.2709 221.449 29.5364 219.941 28.7694L214.553 26.0285C213.963 25.7282 213.265 25.7282 212.674 26.0285L207.287 28.7694C205.779 29.5364 204.037 28.2709 204.3 26.5998L205.242 20.6288C205.345 19.9746 205.13 19.3105 204.662 18.8418L200.39 14.5648C199.195 13.3678 199.86 11.3201 201.531 11.0544L207.5 10.1049C208.155 10.0009 208.719 9.59045 209.021 9.00052L211.768 3.61629Z" fill="#FFC200"/>
<path d="M205.967 7.8472L201.658 5.15143C201.257 4.90074 201.221 4.33069 201.587 4.03139L204.392 1.73609C204.773 1.42432 205.349 1.60002 205.491 2.07146L206.994 7.06254C207.178 7.67305 206.507 8.18539 205.967 7.8472Z" fill="#FFC200"/>
<path d="M221.041 7.8472L225.349 5.15143C225.75 4.90074 225.786 4.33069 225.42 4.03139L222.615 1.73609C222.234 1.42432 221.658 1.60002 221.516 2.07146L220.013 7.06254C219.829 7.67305 220.5 8.18539 221.041 7.8472Z" fill="#FFC200"/>
<path d="M224.665 21.108L228.273 24.688C228.609 25.021 229.172 24.9261 229.38 24.5016L230.975 21.2465C231.191 20.8044 230.889 20.2841 230.397 20.2534L225.195 19.9284C224.559 19.8887 224.213 20.6588 224.665 21.108Z" fill="#FFC200"/>
<path d="M202.471 21.7984L198.864 25.3785C198.528 25.7114 197.965 25.6165 197.757 25.1921L196.162 21.937C195.946 21.4948 196.248 20.9745 196.739 20.9438L201.942 20.6189C202.578 20.5791 202.924 21.3493 202.471 21.7984Z" fill="#FFC200"/>
<path d="M213.341 29.1031L211.927 33.9852C211.796 34.4392 212.149 34.8881 212.621 34.8672L216.243 34.707C216.734 34.6853 217.046 34.1705 216.838 33.7245L214.63 29.0027C214.36 28.4251 213.518 28.4907 213.341 29.1031Z" fill="#FFC200"/>
<path d="M71.4436 26.4768C68.7694 25.4535 67.3294 23.0591 66.6895 21.6598C66.6553 21.5859 66.5975 21.5228 66.5232 21.4783C66.449 21.4339 66.3616 21.4102 66.2723 21.4102C66.183 21.4102 66.0957 21.4339 66.0214 21.4783C65.9472 21.5228 65.8893 21.5859 65.8552 21.6598C65.2123 23.0591 63.7667 25.4612 61.1124 26.4768C61.0316 26.5081 60.9628 26.5599 60.9144 26.6258C60.8661 26.6917 60.8403 26.7688 60.8403 26.8477C60.8403 26.9265 60.8661 27.0037 60.9144 27.0696C60.9628 27.1355 61.0316 27.1873 61.1124 27.2186C63.7838 28.2418 65.2238 30.6388 65.8609 32.0355C65.8951 32.1094 65.9529 32.1726 66.0272 32.217C66.1014 32.2615 66.1887 32.2852 66.278 32.2852C66.3674 32.2852 66.4547 32.2615 66.5289 32.217C66.6032 32.1726 66.661 32.1094 66.6952 32.0355C67.3409 30.6388 68.7866 28.2393 71.4494 27.2161C71.5291 27.1839 71.5967 27.1317 71.6439 27.0657C71.6911 26.9998 71.716 26.923 71.7154 26.8447C71.7148 26.7664 71.6888 26.69 71.6405 26.6246C71.5923 26.5593 71.5239 26.5079 71.4436 26.4768Z" fill="#FFD655"/>
<path d="M213.718 88.635C211.043 87.6117 209.603 85.2173 208.963 83.818C208.929 83.7441 208.871 83.681 208.797 83.6365C208.723 83.5921 208.636 83.5684 208.546 83.5684C208.457 83.5684 208.37 83.5921 208.295 83.6365C208.221 83.681 208.163 83.7441 208.129 83.818C207.486 85.2173 206.041 87.6194 203.386 88.635C203.306 88.6663 203.237 88.7181 203.188 88.784C203.14 88.8499 203.114 88.927 203.114 89.0059C203.114 89.0847 203.14 89.1619 203.188 89.2278C203.237 89.2937 203.306 89.3455 203.386 89.3768C206.058 90.4 207.498 92.797 208.135 94.1937C208.169 94.2676 208.227 94.3308 208.301 94.3752C208.375 94.4197 208.463 94.4434 208.552 94.4434C208.641 94.4434 208.729 94.4197 208.803 94.3752C208.877 94.3308 208.935 94.2676 208.969 94.1937C209.615 92.797 211.06 90.3975 213.723 89.3743C213.803 89.3421 213.871 89.2899 213.918 89.2239C213.965 89.158 213.99 89.0812 213.989 89.0029C213.989 88.9246 213.963 88.8482 213.914 88.7828C213.866 88.7175 213.798 88.6661 213.718 88.635Z" fill="#FFD655"/>
<path d="M241.343 143.887C238.669 142.864 237.229 140.469 236.589 139.07C236.555 138.996 236.497 138.933 236.423 138.888C236.348 138.844 236.261 138.82 236.172 138.82C236.082 138.82 235.995 138.844 235.921 138.888C235.847 138.933 235.789 138.996 235.755 139.07C235.112 140.469 233.666 142.871 231.012 143.887C230.931 143.918 230.862 143.97 230.814 144.036C230.766 144.102 230.74 144.179 230.74 144.258C230.74 144.337 230.766 144.414 230.814 144.48C230.862 144.546 230.931 144.597 231.012 144.629C233.683 145.652 235.123 148.049 235.76 149.446C235.794 149.52 235.852 149.583 235.927 149.627C236.001 149.672 236.088 149.695 236.177 149.695C236.267 149.695 236.354 149.672 236.428 149.627C236.503 149.583 236.56 149.52 236.595 149.446C237.24 148.049 238.686 145.649 241.349 144.626C241.429 144.594 241.496 144.542 241.543 144.476C241.591 144.41 241.615 144.333 241.615 144.255C241.614 144.177 241.588 144.1 241.54 144.035C241.492 143.969 241.423 143.918 241.343 143.887Z" fill="#FFD655"/>
<path d="M84.704 36.3342C83.3884 35.8309 82.68 34.653 82.3652 33.9646C82.3484 33.9283 82.3199 33.8972 82.2834 33.8753C82.2469 33.8535 82.2039 33.8418 82.16 33.8418C82.1161 33.8418 82.0731 33.8535 82.0366 33.8753C82 33.8972 81.9716 33.9283 81.9548 33.9646C81.6386 34.653 80.9274 35.8346 79.6217 36.3342C79.5819 36.3497 79.548 36.3751 79.5243 36.4076C79.5005 36.44 79.4878 36.4779 79.4878 36.5167C79.4878 36.5555 79.5005 36.5934 79.5243 36.6259C79.548 36.6583 79.5819 36.6838 79.6217 36.6992C80.9358 37.2026 81.6442 38.3817 81.9576 39.0688C81.9744 39.1052 82.0029 39.1362 82.0394 39.1581C82.0759 39.18 82.1189 39.1916 82.1628 39.1916C82.2067 39.1916 82.2497 39.18 82.2862 39.1581C82.3228 39.1362 82.3512 39.1052 82.368 39.0688C82.6857 38.3817 83.3968 37.2013 84.7068 36.6979C84.746 36.6821 84.7793 36.6564 84.8025 36.624C84.8257 36.5916 84.8379 36.5538 84.8376 36.5153C84.8373 36.4767 84.8245 36.4391 84.8008 36.407C84.7771 36.3749 84.7434 36.3496 84.704 36.3342Z" fill="#FFD655"/>
<path d="M249.769 124.047C248.454 123.543 247.745 122.365 247.431 121.677C247.414 121.641 247.385 121.61 247.349 121.588C247.312 121.566 247.269 121.554 247.225 121.554C247.181 121.554 247.139 121.566 247.102 121.588C247.065 121.61 247.037 121.641 247.02 121.677C246.704 122.365 245.993 123.547 244.687 124.047C244.647 124.062 244.613 124.088 244.59 124.12C244.566 124.152 244.553 124.19 244.553 124.229C244.553 124.268 244.566 124.306 244.59 124.338C244.613 124.371 244.647 124.396 244.687 124.412C246.001 124.915 246.71 126.094 247.023 126.781C247.04 126.818 247.068 126.849 247.105 126.871C247.141 126.892 247.184 126.904 247.228 126.904C247.272 126.904 247.315 126.892 247.352 126.871C247.388 126.849 247.417 126.818 247.433 126.781C247.751 126.094 248.462 124.914 249.772 124.41C249.811 124.395 249.845 124.369 249.868 124.336C249.891 124.304 249.903 124.266 249.903 124.228C249.903 124.189 249.89 124.152 249.866 124.119C249.843 124.087 249.809 124.062 249.769 124.047Z" fill="#FFD655"/>
<path d="M168.272 155.126C166.957 154.623 166.248 153.445 165.934 152.757C165.917 152.72 165.888 152.689 165.852 152.667C165.815 152.645 165.772 152.634 165.728 152.634C165.684 152.634 165.641 152.645 165.605 152.667C165.568 152.689 165.54 152.72 165.523 152.757C165.207 153.445 164.496 154.627 163.19 155.126C163.15 155.142 163.116 155.167 163.093 155.2C163.069 155.232 163.056 155.27 163.056 155.309C163.056 155.348 163.069 155.385 163.093 155.418C163.116 155.45 163.15 155.476 163.19 155.491C164.504 155.995 165.213 157.174 165.526 157.861C165.543 157.897 165.571 157.928 165.608 157.95C165.644 157.972 165.687 157.984 165.731 157.984C165.775 157.984 165.818 157.972 165.855 157.95C165.891 157.928 165.92 157.897 165.936 157.861C166.254 157.174 166.965 155.993 168.275 155.49C168.314 155.474 168.348 155.448 168.371 155.416C168.394 155.384 168.406 155.346 168.406 155.307C168.406 155.269 168.393 155.231 168.369 155.199C168.345 155.167 168.312 155.142 168.272 155.126Z" fill="#FFD655"/>
<path d="M220.173 137.847C218.135 137.067 217.037 135.243 216.549 134.176C216.523 134.12 216.479 134.072 216.423 134.038C216.366 134.004 216.3 133.986 216.231 133.986C216.163 133.986 216.097 134.004 216.04 134.038C215.984 134.072 215.94 134.12 215.914 134.176C215.424 135.243 214.322 137.073 212.299 137.847C212.238 137.871 212.185 137.91 212.148 137.961C212.111 138.011 212.092 138.07 212.092 138.13C212.092 138.19 212.111 138.249 212.148 138.299C212.185 138.349 212.238 138.389 212.299 138.412C214.335 139.192 215.432 141.019 215.918 142.083C215.944 142.14 215.988 142.188 216.045 142.222C216.101 142.256 216.168 142.274 216.236 142.274C216.304 142.274 216.37 142.256 216.427 142.222C216.484 142.188 216.528 142.14 216.554 142.083C217.046 141.019 218.148 139.19 220.177 138.41C220.238 138.386 220.289 138.346 220.325 138.296C220.361 138.246 220.38 138.187 220.38 138.127C220.379 138.068 220.359 138.01 220.323 137.96C220.286 137.91 220.234 137.871 220.173 137.847Z" fill="#FFD655"/>
<path d="M70.3024 171.689C68.2644 170.909 67.167 169.084 66.6793 168.018C66.6532 167.962 66.6091 167.913 66.5526 167.88C66.496 167.846 66.4294 167.828 66.3614 167.828C66.2933 167.828 66.2268 167.846 66.1702 167.88C66.1136 167.913 66.0695 167.962 66.0435 168.018C65.5536 169.084 64.4518 170.915 62.429 171.689C62.3675 171.713 62.315 171.752 62.2782 171.802C62.2413 171.853 62.2217 171.911 62.2217 171.972C62.2217 172.032 62.2413 172.09 62.2782 172.141C62.315 172.191 62.3675 172.23 62.429 172.254C64.4649 173.034 65.5623 174.861 66.0478 175.925C66.0738 175.981 66.1179 176.03 66.1745 176.063C66.2311 176.097 66.2977 176.115 66.3657 176.115C66.4338 176.115 66.5003 176.097 66.5569 176.063C66.6135 176.03 66.6576 175.981 66.6836 175.925C67.1757 174.861 68.2774 173.032 70.3068 172.252C70.3675 172.228 70.419 172.188 70.455 172.138C70.491 172.087 70.5099 172.029 70.5095 171.969C70.509 171.91 70.4892 171.851 70.4524 171.802C70.4157 171.752 70.3635 171.713 70.3024 171.689Z" fill="#FFD655"/>
<path d="M162.158 19.746C160.12 18.9662 159.023 17.1414 158.535 16.075C158.509 16.0187 158.465 15.9706 158.409 15.9367C158.352 15.9028 158.285 15.8848 158.217 15.8848C158.149 15.8848 158.083 15.9028 158.026 15.9367C157.97 15.9706 157.925 16.0187 157.899 16.075C157.41 17.1414 156.308 18.972 154.285 19.746C154.223 19.7699 154.171 19.8093 154.134 19.8596C154.097 19.9098 154.078 19.9686 154.078 20.0287C154.078 20.0888 154.097 20.1475 154.134 20.1978C154.171 20.248 154.223 20.2875 154.285 20.3113C156.321 21.0911 157.418 22.9178 157.904 23.9823C157.93 24.0386 157.974 24.0867 158.03 24.1206C158.087 24.1545 158.154 24.1726 158.222 24.1726C158.29 24.1726 158.356 24.1545 158.413 24.1206C158.469 24.0867 158.514 24.0386 158.54 23.9823C159.032 22.9178 160.133 21.0892 162.163 20.3094C162.223 20.2849 162.275 20.2451 162.311 20.1948C162.347 20.1446 162.366 20.0861 162.365 20.0264C162.365 19.9667 162.345 19.9085 162.308 19.8587C162.272 19.8089 162.22 19.7697 162.158 19.746Z" fill="#FFD655"/>
<path d="M182.188 159.257C180.15 158.477 179.052 156.653 178.565 155.586C178.538 155.53 178.494 155.482 178.438 155.448C178.381 155.414 178.315 155.396 178.247 155.396C178.179 155.396 178.112 155.414 178.055 155.448C177.999 155.482 177.955 155.53 177.929 155.586C177.439 156.653 176.337 158.483 174.314 159.257C174.253 159.281 174.2 159.321 174.163 159.371C174.127 159.421 174.107 159.48 174.107 159.54C174.107 159.6 174.127 159.659 174.163 159.709C174.2 159.759 174.253 159.799 174.314 159.823C176.35 160.602 177.448 162.429 177.933 163.494C177.959 163.55 178.003 163.598 178.06 163.632C178.116 163.666 178.183 163.684 178.251 163.684C178.319 163.684 178.386 163.666 178.442 163.632C178.499 163.598 178.543 163.55 178.569 163.494C179.061 162.429 180.163 160.6 182.192 159.821C182.253 159.796 182.304 159.756 182.34 159.706C182.376 159.656 182.395 159.597 182.395 159.538C182.394 159.478 182.374 159.42 182.338 159.37C182.301 159.32 182.249 159.281 182.188 159.257Z" fill="#FFD655"/>
<path d="M55.6966 57.054C54.3811 56.5506 53.6727 55.3727 53.3579 54.6843C53.3411 54.648 53.3126 54.6169 53.2761 54.5951C53.2396 54.5732 53.1966 54.5615 53.1527 54.5615C53.1087 54.5615 53.0658 54.5732 53.0293 54.5951C52.9927 54.6169 52.9643 54.648 52.9475 54.6843C52.6312 55.3727 51.92 56.5544 50.6143 57.054C50.5746 57.0694 50.5407 57.0949 50.5169 57.1273C50.4931 57.1597 50.4805 57.1977 50.4805 57.2364C50.4805 57.2752 50.4931 57.3132 50.5169 57.3456C50.5407 57.378 50.5746 57.4035 50.6143 57.4189C51.9285 57.9223 52.6368 59.1014 52.9503 59.7885C52.9671 59.8249 52.9955 59.856 53.0321 59.8778C53.0686 59.8997 53.1115 59.9114 53.1555 59.9114C53.1994 59.9114 53.2424 59.8997 53.2789 59.8778C53.3154 59.856 53.3439 59.8249 53.3607 59.7885C53.6783 59.1014 54.3895 57.921 55.6994 57.4177C55.7387 57.4018 55.7719 57.3761 55.7952 57.3437C55.8184 57.3113 55.8306 57.2735 55.8303 57.235C55.83 57.1965 55.8172 57.1589 55.7935 57.1267C55.7698 57.0946 55.7361 57.0693 55.6966 57.054Z" fill="#FFD655"/>
<path d="M235.956 65.3416C234.64 64.8382 233.932 63.6603 233.617 62.9719C233.6 62.9356 233.572 62.9045 233.535 62.8827C233.499 62.8608 233.456 62.8491 233.412 62.8491C233.368 62.8491 233.325 62.8608 233.289 62.8827C233.252 62.9045 233.224 62.9356 233.207 62.9719C232.891 63.6603 232.179 64.842 230.874 65.3416C230.834 65.357 230.8 65.3825 230.776 65.4149C230.752 65.4473 230.74 65.4853 230.74 65.524C230.74 65.5628 230.752 65.6008 230.776 65.6332C230.8 65.6656 230.834 65.6911 230.874 65.7065C232.188 66.2099 232.896 67.389 233.21 68.0761C233.226 68.1125 233.255 68.1436 233.291 68.1654C233.328 68.1873 233.371 68.199 233.415 68.199C233.459 68.199 233.502 68.1873 233.538 68.1654C233.575 68.1436 233.603 68.1125 233.62 68.0761C233.938 67.389 234.649 66.2086 235.959 65.7053C235.998 65.6894 236.031 65.6637 236.054 65.6313C236.078 65.5989 236.09 65.5611 236.09 65.5226C236.089 65.4841 236.076 65.4465 236.053 65.4143C236.029 65.3822 235.995 65.3569 235.956 65.3416Z" fill="#FFD655"/>
<path d="M148.934 26.6653C147.618 26.1619 146.91 24.984 146.595 24.2957C146.578 24.2593 146.55 24.2282 146.513 24.2064C146.477 24.1845 146.434 24.1729 146.39 24.1729C146.346 24.1729 146.303 24.1845 146.267 24.2064C146.23 24.2282 146.202 24.2593 146.185 24.2957C145.869 24.984 145.157 26.1657 143.852 26.6653C143.812 26.6807 143.778 26.7062 143.754 26.7386C143.73 26.771 143.718 26.809 143.718 26.8478C143.718 26.8866 143.73 26.9245 143.754 26.9569C143.778 26.9893 143.812 27.0148 143.852 27.0302C145.166 27.5336 145.874 28.7128 146.188 29.3999C146.204 29.4362 146.233 29.4673 146.269 29.4892C146.306 29.511 146.349 29.5227 146.393 29.5227C146.437 29.5227 146.48 29.511 146.516 29.4892C146.553 29.4673 146.581 29.4362 146.598 29.3999C146.916 28.7128 147.627 27.5324 148.937 27.029C148.976 27.0132 149.009 26.9875 149.032 26.955C149.056 26.9226 149.068 26.8848 149.068 26.8463C149.067 26.8078 149.055 26.7702 149.031 26.738C149.007 26.7059 148.973 26.6806 148.934 26.6653Z" fill="#FFD655"/>
</g>
<defs>
<clipPath id="clip0_2998_55247">
<rect width="296" height="192" fill="white"/>
</clipPath>
</defs>
</svg>
